<?xml version="1.0" encoding="utf-8"?>
<!-- Generator: Adobe Illustrator 29.6.0, SVG Export Plug-In . SVG Version: 9.03 Build 0)  -->
<svg version="1.0" id="Layer_1" xmlns="http://www.w3.org/2000/svg" xmlns:xlink="http://www.w3.org/1999/xlink" x="0px" y="0px"
	 viewBox="0 0 305 305" style="enable-background:new 0 0 305 305;" xml:space="preserve">
<style type="text/css">
	.st0{fill:#3B82F6;}
</style>
<g transform="translate(0.000000,305.000000) scale(0.100000,-0.100000)">
	<path class="st0" d="M1078,2414c-111-26-258-118-325-202c-46-57-83-126-108-199l-22-66l-54-14c-178-44-338-193-400-373
		c-31-89-38-259-14-350c29-112,72-187,160-276c64-65,97-90,165-123c142-68,191-73,748-69c467,4,478,5,542,27c103,36,243,112,231,124
		c-7,7-11,120-11,339v328h-55h-55v-330V900h-25h-25v265v265h-55h-55l-2-267l-3-268h-25h-25l-3,183l-2,182h-55h-55v-185V890h-24
		c-23,0-24,2-31,130l-7,130h-49h-48l-3-127l-3-128l-142-3c-79-1-143,1-143,5c0,5,20,21,45,36c58,37,140,127,171,188
		c135,268,2,591-287,690c-129,44-304,23-419-51c-100-64-193-195-219-310c-35-152,16-331,129-451c52-55,45-62-21-21
		c-195,125-265,372-165,577c65,133,157,203,327,251l97,27l12,63c33,177,169,326,335,369c225,58,449-46,556-259c22-44,42-82,44-84
		s19,7,37,21c71,53,119,70,208,75c69,3,95,0,141-17c73-28,132-80,155-136c11-25,22-45,26-45c10,0,88,155,88,174s-101,98-164,129
		c-108,52-260,65-374,31l-57-16l-24,34c-47,64-143,146-211,182C1396,2425,1218,2448,1078,2414z M850,1716c0-38,10-49,34-40
		c10,4,16,18,16,40c0,40,9,42,91,18c70-20,76-27,55-59c-19-29-15-55,8-55c8,0,23,14,34,31l19,31l42-38c63-56,69-73,37-97
		c-36-26-35-51,2-45c15,3,34,8,43,12c13,6,20-3,33-40c9-26,16-60,16-76c0-25-3-28-35-28c-31,0-35-3-35-25s4-25,35-25
		c32,0,35-3,35-27c0-32-16-91-29-112c-8-12-14-12-42,2c-18,8-37,13-41,11c-17-11-7-41,17-54c14-7,25-20,25-27c0-14-86-103-99-103
		c-4,0-15,14-24,30c-33,55-72,28-42-29l16-32l-36-15c-19-8-55-17-80-20l-44-7l-3,39c-2,31-7,39-23,39s-21-8-23-37c-3-32-7-38-26-38
		c-31,0-124,28-131,40c-3,5,1,23,10,40c28,54-11,72-42,20c-9-16-20-30-24-30c-13,0-99,89-99,103c0,7,11,20,25,27s25,22,25,33
		c0,20-9,20-66,2c-19-6-24,0-38,41c-9,26-16,60-16,75c0,25,4,28,38,31c29,2,37,7,37,23s-8,21-37,23c-34,3-38,6-38,31
		c0,15,7,49,16,75c13,37,20,46,33,40c9-4,27-7,41-8c34-1,38,27,5,42c-14,6-25,16-25,22c0,15,80,100,95,100c7,0,20-11,29-25
		s23-25,31-25c19,0,19,30,0,57c-15,21-14,23,14,38c31,15,91,32,124,34C846,1750,850,1742,850,1716z"/>
	<path class="st0" d="M847,1596c-5-12-10-200-8-253c1-6,33-35,72-64c56-42,75-50,88-42c30,19,22,40-33,88c-56,47-56,48-56,105
		c0,31-3,85-6,119c-6,55-9,61-29,61C862,1610,850,1604,847,1596z"/>
	<path class="st0" d="M2521,2097c-36-67-102-189-148-271s-83-150-83-152s43-4,96-4h97l-5-132c-6-142-30-243-85-353
		c-162-323-567-545-994-545c-49,0-89-4-89-9c0-14,181-24,289-17c253,18,473,93,676,229c78,53,240,215,294,295
		c94,139,155,306,168,460l6,72h88c49,0,89,2,89,5c0,10-323,545-329,545C2588,2220,2556,2165,2521,2097z"/>
	<path class="st0" d="M2047,1753c-10-9-9-831,1-837c4-2,28,14,54,37l47,42l2,300c1,165,2,337,1,383l-2,82h-48
		C2075,1760,2050,1757,2047,1753z"/>
</g>
</svg>
